<svg xmlns="http://www.w3.org/2000/svg" xmlns:xlink="http://www.w3.org/1999/xlink" width="403" height="410" viewBox="0 0 403 410">
  <defs>
    <clipPath id="clip-icon">
      <rect width="403" height="410"/>
    </clipPath>
  </defs>
  <g id="icon" clip-path="url(#clip-icon)">
    <g id="Group_101" data-name="Group 101" transform="translate(-0.412 3)">
      <g id="Group_46" data-name="Group 46" transform="translate(87.523 14.877)">
        <g id="Group_45" data-name="Group 45">
          <path id="Path_181" data-name="Path 181" d="M-5010.828-363.656a12.162,12.162,0,0,0,12.172-12.172A12.162,12.162,0,0,0-5010.828-388,12.162,12.162,0,0,0-5023-375.828,12.2,12.2,0,0,0-5010.828-363.656Z" transform="translate(5037.813 388)" fill="#315bf4"/>
          <path id="Path_182" data-name="Path 182" d="M-5019.016-3.2A26.977,26.977,0,0,0-5046,23.785a26.977,26.977,0,0,0,26.984,26.985,26.977,26.977,0,0,0,26.985-26.985A26.977,26.977,0,0,0-5019.016-3.2Z" transform="translate(5046 251.022)" fill="#315bf4"/>
          <path id="Path_183" data-name="Path 183" d="M-5019.016,132.8A26.977,26.977,0,0,0-5046,159.785a26.977,26.977,0,0,0,26.984,26.985,26.977,26.977,0,0,0,26.985-26.985A26.936,26.936,0,0,0-5019.016,132.8Z" transform="translate(5046 202.609)" fill="#315bf4"/>
          <path id="Path_184" data-name="Path 184" d="M-5019.016-139.1A26.977,26.977,0,0,0-5046-112.115a26.977,26.977,0,0,0,26.984,26.985,26.977,26.977,0,0,0,26.985-26.985A26.936,26.936,0,0,0-5019.016-139.1Z" transform="translate(5046 299.398)" fill="#315bf4"/>
          <path id="Path_185" data-name="Path 185" d="M-5019.016-221.131a26.977,26.977,0,0,0,26.985-26.985,26.978,26.978,0,0,0-26.985-26.985A26.977,26.977,0,0,0-5046-248.115,27.06,27.06,0,0,0-5019.016-221.131Z" transform="translate(5046 347.811)" fill="#315bf4"/>
        </g>
      </g>
      <g id="Group_47" data-name="Group 47" transform="translate(0)">
        <path id="Path_186" data-name="Path 186" d="M-5154.915-357.13a26.977,26.977,0,0,0,26.984-26.985,26.977,26.977,0,0,0-26.984-26.985,26.977,26.977,0,0,0-26.985,26.985A26.977,26.977,0,0,0-5154.915-357.13Z" transform="translate(5181.9 411.1)" fill="#315bf4"/>
        <path id="Path_187" data-name="Path 187" d="M-5154.915-275.1a26.977,26.977,0,0,0-26.985,26.985,26.977,26.977,0,0,0,26.985,26.985,26.977,26.977,0,0,0,26.984-26.985A27.018,27.018,0,0,0-5154.915-275.1Z" transform="translate(5181.9 362.688)" fill="#315bf4"/>
        <path id="Path_188" data-name="Path 188" d="M-5154.915-139.1a26.977,26.977,0,0,0-26.985,26.985,26.977,26.977,0,0,0,26.985,26.985,26.977,26.977,0,0,0,26.984-26.985A26.977,26.977,0,0,0-5154.915-139.1Z" transform="translate(5181.9 314.275)" fill="#315bf4"/>
        <path id="Path_189" data-name="Path 189" d="M-5154.915-3.2A26.977,26.977,0,0,0-5181.9,23.785a26.977,26.977,0,0,0,26.985,26.985,26.977,26.977,0,0,0,26.984-26.985A27.018,27.018,0,0,0-5154.915-3.2Z" transform="translate(5181.9 265.899)" fill="#315bf4"/>
        <path id="Path_190" data-name="Path 190" d="M-5154.915,132.8a26.977,26.977,0,0,0-26.985,26.985,26.977,26.977,0,0,0,26.985,26.985,26.977,26.977,0,0,0,26.984-26.985A26.977,26.977,0,0,0-5154.915,132.8Z" transform="translate(5181.9 217.486)" fill="#315bf4"/>
      </g>
      <g id="Group_48" data-name="Group 48" transform="translate(350.222)">
        <path id="Path_191" data-name="Path 191" d="M-4611.115-357.13a26.977,26.977,0,0,0,26.984-26.985,26.977,26.977,0,0,0-26.984-26.985,26.936,26.936,0,0,0-26.985,26.985A26.936,26.936,0,0,0-4611.115-357.13Z" transform="translate(4638.1 411.1)" fill="#315bf4"/>
        <path id="Path_192" data-name="Path 192" d="M-4611.115-275.1a26.977,26.977,0,0,0-26.985,26.985,26.977,26.977,0,0,0,26.985,26.985,26.936,26.936,0,0,0,26.984-26.985A27.059,27.059,0,0,0-4611.115-275.1Z" transform="translate(4638.1 362.688)" fill="#315bf4"/>
        <path id="Path_193" data-name="Path 193" d="M-4611.115-3.2A26.977,26.977,0,0,0-4638.1,23.785a26.977,26.977,0,0,0,26.985,26.985,26.936,26.936,0,0,0,26.984-26.985A27.059,27.059,0,0,0-4611.115-3.2Z" transform="translate(4638.1 265.899)" fill="#315bf4"/>
        <path id="Path_194" data-name="Path 194" d="M-4611.115,132.8a26.977,26.977,0,0,0-26.985,26.985,26.977,26.977,0,0,0,26.985,26.985,26.936,26.936,0,0,0,26.984-26.985A27.018,27.018,0,0,0-4611.115,132.8Z" transform="translate(4638.1 217.486)" fill="#315bf4"/>
        <circle id="Ellipse_42" data-name="Ellipse 42" cx="26.985" cy="26.985" r="26.985" transform="translate(0 175.175)" fill="#315bf4"/>
      </g>
      <g id="Group_49" data-name="Group 49" transform="translate(175.111 14.877)">
        <path id="Path_195" data-name="Path 195" d="M-4874.828-363.656a12.162,12.162,0,0,0,12.172-12.172A12.162,12.162,0,0,0-4874.828-388,12.162,12.162,0,0,0-4887-375.828,12.121,12.121,0,0,0-4874.828-363.656Z" transform="translate(4901.813 388)" fill="#315bf4"/>
        <path id="Path_196" data-name="Path 196" d="M-4874.828-227.856a12.162,12.162,0,0,0,12.172-12.172,12.162,12.162,0,0,0-12.172-12.172A12.162,12.162,0,0,0-4887-240.028,12.121,12.121,0,0,0-4874.828-227.856Z" transform="translate(4901.813 339.659)" fill="#315bf4"/>
        <path id="Path_197" data-name="Path 197" d="M-4874.828,155.7A12.162,12.162,0,0,0-4887,167.872a12.162,12.162,0,0,0,12.172,12.172,12.162,12.162,0,0,0,12.172-12.172A12.2,12.2,0,0,0-4874.828,155.7Z" transform="translate(4901.813 194.458)" fill="#315bf4"/>
        <circle id="Ellipse_43" data-name="Ellipse 43" cx="26.985" cy="26.985" r="26.985" transform="translate(0 160.298)" fill="#315bf4"/>
        <path id="Path_198" data-name="Path 198" d="M-4874.828,19.7A12.162,12.162,0,0,0-4887,31.872a12.162,12.162,0,0,0,12.172,12.172,12.162,12.162,0,0,0,12.172-12.172A12.2,12.2,0,0,0-4874.828,19.7Z" transform="translate(4901.813 242.87)" fill="#315bf4"/>
      </g>
      <g id="Group_50" data-name="Group 50" transform="translate(262.634)">
        <path id="Path_199" data-name="Path 199" d="M-4738.928,155.7a12.162,12.162,0,0,0-12.172,12.172,12.162,12.162,0,0,0,12.172,12.172,12.2,12.2,0,0,0,12.172-12.172A12.122,12.122,0,0,0-4738.928,155.7Z" transform="translate(4765.913 209.335)" fill="#315bf4"/>
        <path id="Path_200" data-name="Path 200" d="M-4747.115-275.1a26.977,26.977,0,0,0-26.985,26.985,26.977,26.977,0,0,0,26.985,26.985,26.977,26.977,0,0,0,26.984-26.985A27.018,27.018,0,0,0-4747.115-275.1Z" transform="translate(4774.1 362.688)" fill="#315bf4"/>
        <path id="Path_201" data-name="Path 201" d="M-4747.115-3.2A26.977,26.977,0,0,0-4774.1,23.785a26.977,26.977,0,0,0,26.985,26.985,26.977,26.977,0,0,0,26.984-26.985A27.018,27.018,0,0,0-4747.115-3.2Z" transform="translate(4774.1 265.899)" fill="#315bf4"/>
        <path id="Path_202" data-name="Path 202" d="M-4747.115-357.13a26.977,26.977,0,0,0,26.984-26.985,26.977,26.977,0,0,0-26.984-26.985,26.977,26.977,0,0,0-26.985,26.985A26.977,26.977,0,0,0-4747.115-357.13Z" transform="translate(4774.1 411.1)" fill="#315bf4"/>
        <circle id="Ellipse_44" data-name="Ellipse 44" cx="26.985" cy="26.985" r="26.985" transform="translate(0 175.175)" fill="#315bf4"/>
      </g>
    </g>
  </g>
</svg>
