<svg xmlns="http://www.w3.org/2000/svg" xmlns:xlink="http://www.w3.org/1999/xlink" width="814" height="570" viewBox="0 0 814 570">
  <defs>
    <linearGradient id="linear-gradient" x1="0.627" y1="0.5" x2="1.626" y2="0.5" gradientUnits="objectBoundingBox">
      <stop offset="0" stop-color="gray" stop-opacity="0.251"/>
      <stop offset="0.54" stop-color="gray" stop-opacity="0.122"/>
      <stop offset="1" stop-color="gray" stop-opacity="0.102"/>
    </linearGradient>
    <clipPath id="clip-ilustra_home">
      <rect width="814" height="570"/>
    </clipPath>
  </defs>
  <g id="ilustra_home" clip-path="url(#clip-ilustra_home)">
    <g id="undraw_visual_data_b1wx" transform="translate(-0.003 -0.344)">
      <ellipse id="Ellipse_1" data-name="Ellipse 1" cx="46.03" cy="12.22" rx="46.03" ry="12.22" transform="translate(648.021 539.823)" fill="#315bf4" opacity="0.1"/>
      <path id="Path_1" data-name="Path 1" d="M813.175,560.677c-17.513,14.528-42.434,20.541-66.535,24.339l-4.056.619a761.671,761.671,0,0,1-76.166,6.969c-13.665.662-27.331,1.129-41,1.546l-10.709.316q-20.858.619-41.794,1.216-20.5.583-41,1.093-26.252.64-52.5,1.064-20.5.324-41,.446-26.259.151-52.5-.1-20.512-.209-41-.719-26.266-.676-52.5-1.978-17.808-.87-35.594-2.093l-5.4-.381c-50.9-3.668-102.712-10.249-147.254-31.049l-1.2-.568c-.6-.28-1.194-.561-1.791-.856a161.178,161.178,0,0,1-23.418-13.73c-13.169-9.393-24.044-20.858-29.79-34.458-9-21.332-4.243-45.311,6.041-66.169S79.74,406.5,93.1,386.855c3.913-5.754,7.624-11.723,11.076-17.844,21.577-38.385,32.279-82.8,9.659-119.794a164.4,164.4,0,0,0-9.659-13.665c-5.516-7.192-11.126-14.384-14.917-22.346-8.839-18.527-6.941-39.363-3.718-59.156,4.315-26.316,12.227-54.661,36.954-71.1C148.145,65.873,184.56,66.736,216.4,72.878c49.5,9.487,95.2,29.344,141.32,47.253s94.441,34.285,145.154,36.047a231.653,231.653,0,0,0,32.638-1.187h0a207,207,0,0,0,42.521-8.954c19.958-6.574,38.119-16.463,51.583-30.207,28.877-29.38,83.142-31.6,122.268-13.859,37.335,16.931,61.479,52.762,59.7,88.551-2.028,39.838-31.862,72.591-59.2,106.186-3.316,4.071-6.588,8.156-9.774,12.27q-2.668,3.445-5.236,6.9h0c-3,4.071-5.9,8.163-8.631,12.306-13.967,21.239-23.842,46.75-14.226,69.678,5.394,12.838,15.686,22.634,28.093,31.186,27.8,19.153,66.169,32.041,83.43,58.854C840.909,511.014,835.4,542.207,813.175,560.677Z" transform="translate(-43.21 -60.799)" fill="#315bf4" opacity="0.1"/>
      <g id="Group_1" data-name="Group 1" transform="translate(329.293 0.344)" opacity="0.1">
        <path id="Path_2" data-name="Path 2" d="M598.7,598.883q.043,1.014.151,1.985,8.393-3.344,16.477-7.192a13.356,13.356,0,0,0,7.617-3.726c1.575-.791,3.143-1.618,4.7-2.445a19.291,19.291,0,0,0-1.194-2.158c-3.028-4.783-7.631-7.775-12.7-7.609s-9.458,3.452-12.169,8.408A24.785,24.785,0,0,0,598.7,598.883Z" transform="translate(-528.464 -204.025)" fill="#3f3d56"/>
        <path id="Path_3" data-name="Path 3" d="M597.551,563.921a24.863,24.863,0,0,0,3.7,12.457c3.035,4.768,7.638,7.76,12.709,7.6.352,0,.719-.05,1.043-.079a13.356,13.356,0,0,0,7.617-3.726,18.319,18.319,0,0,0,3.5-4.589,25.763,25.763,0,0,0-.82-25.173c-3.035-4.783-7.638-7.775-12.709-7.609s-9.451,3.452-12.162,8.408a24.792,24.792,0,0,0-2.884,12.716Z" transform="translate(-528.141 -194.214)" fill="#3f3d56"/>
        <ellipse id="Ellipse_2" data-name="Ellipse 2" cx="15.729" cy="20.591" rx="15.729" ry="20.591" transform="matrix(0.999, -0.033, 0.033, 0.999, 67.921, 323.962)" fill="#3f3d56"/>
        <ellipse id="Ellipse_3" data-name="Ellipse 3" cx="15.729" cy="20.591" rx="15.729" ry="20.591" transform="matrix(0.999, -0.033, 0.033, 0.999, 67.096, 298.816)" fill="#3f3d56"/>
        <ellipse id="Ellipse_4" data-name="Ellipse 4" cx="15.729" cy="20.591" rx="15.729" ry="20.591" transform="matrix(0.999, -0.033, 0.033, 0.999, 66.272, 273.662)" fill="#3f3d56"/>
        <path id="Path_4" data-name="Path 4" d="M636.948,177.832a74.851,74.851,0,0,0,5.567-8.81L600.987,163.6l44.678-1.136a75.439,75.439,0,0,0-.518-59.7l-58.912,33.048L640.178,93.38A75.339,75.339,0,1,0,518.55,181.744a75.631,75.631,0,0,0-8.134,14.01l54.524,26.093-57.8-17.3a75.375,75.375,0,0,0,14.464,70.3,75.331,75.331,0,1,0,118.355-3.92,75.353,75.353,0,0,0-3.013-93.1Z" transform="translate(-501.054 -58.134)" fill="#315bf4"/>
        <path id="Path_5" data-name="Path 5" d="M505.1,294.94a74.987,74.987,0,0,0,17.643,46.03,75.331,75.331,0,1,0,118.355-3.9C650.771,323.94,504.827,286.49,505.1,294.94Z" transform="translate(-502.19 -124.279)" opacity="0.1"/>
      </g>
      <g id="Group_2" data-name="Group 2" transform="translate(173.02 246.546)" opacity="0.1">
        <path id="Path_6" data-name="Path 6" d="M361.346,785.5a12.331,12.331,0,0,1-.108,1.438q-5.97-2.373-11.731-5.085a9.5,9.5,0,0,1-5.423-2.64q-1.683-.856-3.344-1.741a13.587,13.587,0,0,1,.849-1.525c2.158-3.409,5.423-5.538,9.033-5.423s6.732,2.445,8.631,5.97A17.621,17.621,0,0,1,361.346,785.5Z" transform="translate(-299.769 -504.359)" fill="#3f3d56"/>
        <path id="Path_7" data-name="Path 7" d="M361.445,760.6a17.686,17.686,0,0,1-2.618,8.868c-2.158,3.395-5.43,5.531-9.033,5.416l-.719-.057a9.5,9.5,0,0,1-5.423-2.64,12.945,12.945,0,0,1-2.5-3.265,18.362,18.362,0,0,1,.561-17.9c2.158-3.409,5.43-5.538,9.033-5.423s6.732,2.445,8.667,5.97A17.621,17.621,0,0,1,361.445,760.6Z" transform="translate(-299.308 -497.359)" fill="#3f3d56"/>
        <ellipse id="Ellipse_5" data-name="Ellipse 5" cx="14.651" cy="11.191" rx="14.651" ry="11.191" transform="translate(39.885 259.313) rotate(-88.19)" fill="#3f3d56"/>
        <ellipse id="Ellipse_6" data-name="Ellipse 6" cx="14.651" cy="11.191" rx="14.651" ry="11.191" transform="translate(40.444 241.414) rotate(-88.19)" fill="#3f3d56"/>
        <ellipse id="Ellipse_7" data-name="Ellipse 7" cx="14.651" cy="11.191" rx="14.651" ry="11.191" transform="translate(41.011 223.509) rotate(-88.19)" fill="#3f3d56"/>
        <path id="Path_8" data-name="Path 8" d="M298.407,485.836a54.527,54.527,0,0,1-3.977-6.264l29.546-3.927-31.8-.719a53.683,53.683,0,0,1,.316-42.492L334.448,455.9l-38.421-30.171a53.611,53.611,0,1,1,86.609,62.759,53.532,53.532,0,0,1,5.8,9.968l-38.781,18.614L390.777,504.7A53.69,53.69,0,0,1,380.55,554.76a53.611,53.611,0,1,1-84.235-2.661,53.611,53.611,0,0,1,2.093-66.255Z" transform="translate(-283.775 -400.451)" fill="#6c63ff"/>
        <path id="Path_9" data-name="Path 9" d="M393.057,569.09a53.416,53.416,0,0,1-12.507,32.775,53.611,53.611,0,1,1-84.235-2.661C289.417,589.854,393.259,563.07,393.057,569.09Z" transform="translate(-283.775 -447.556)" opacity="0.1"/>
      </g>
      <g id="Group_3" data-name="Group 3" transform="translate(547.581 152.923)" opacity="0.1">
        <path id="Path_10" data-name="Path 10" d="M882.116,655.453a13.949,13.949,0,0,1-.1,1.438q-5.977-2.374-11.731-5.085a9.537,9.537,0,0,1-5.43-2.64c-1.115-.568-2.237-1.151-3.344-1.74a14.838,14.838,0,0,1,.849-1.525c2.158-3.409,5.423-5.538,9.033-5.423s6.732,2.445,8.631,5.97A17.622,17.622,0,0,1,882.116,655.453Z" transform="translate(-820.55 -374.22)" fill="#3f3d56"/>
        <path id="Path_11" data-name="Path 11" d="M882.27,630.551a17.685,17.685,0,0,1-2.625,8.868c-2.158,3.395-5.423,5.531-9.034,5.416l-.719-.058a9.536,9.536,0,0,1-5.43-2.64,13.176,13.176,0,0,1-2.5-3.265,18.362,18.362,0,0,1,.561-17.9c2.158-3.4,5.43-5.538,9.033-5.423s6.739,2.445,8.667,5.969a17.621,17.621,0,0,1,2.043,9.033Z" transform="translate(-820.1 -367.22)" fill="#3f3d56"/>
        <ellipse id="Ellipse_8" data-name="Ellipse 8" cx="14.651" cy="11.191" rx="14.651" ry="11.191" transform="translate(39.901 259.396) rotate(-88.19)" fill="#3f3d56"/>
        <ellipse id="Ellipse_9" data-name="Ellipse 9" cx="14.651" cy="11.191" rx="14.651" ry="11.191" transform="translate(40.467 241.498) rotate(-88.19)" fill="#3f3d56"/>
        <ellipse id="Ellipse_10" data-name="Ellipse 10" cx="14.651" cy="11.191" rx="14.651" ry="11.191" transform="translate(41.033 223.599) rotate(-88.19)" fill="#3f3d56"/>
        <path id="Path_12" data-name="Path 12" d="M819.182,355.752a52.921,52.921,0,0,1-3.97-6.264l29.546-3.891-31.8-.77a53.726,53.726,0,0,1,.309-42.492L855.222,325.8,816.8,295.646a53.618,53.618,0,1,1,86.609,62.759,53.5,53.5,0,0,1,5.8,9.968l-38.781,18.614,41.118-12.371a53.632,53.632,0,0,1-10.227,50.051,53.6,53.6,0,1,1-84.214-2.661,53.611,53.611,0,0,1,2.093-66.255Z" transform="translate(-804.559 -270.277)" fill="#315bf4"/>
        <path id="Path_13" data-name="Path 13" d="M913.84,439.039a53.366,53.366,0,0,1-12.514,32.768,53.6,53.6,0,1,1-84.221-2.661C810.2,459.8,914.027,433.012,913.84,439.039Z" transform="translate(-804.561 -317.416)" opacity="0.1"/>
      </g>
      <ellipse id="Ellipse_11" data-name="Ellipse 11" cx="41.003" cy="7.883" rx="41.003" ry="7.883" transform="translate(98.168 532.272)" fill="#141414"/>
      <ellipse id="Ellipse_12" data-name="Ellipse 12" cx="4.776" cy="6.25" rx="4.776" ry="6.25" transform="translate(133.712 530.553)" fill="#141414"/>
      <ellipse id="Ellipse_13" data-name="Ellipse 13" cx="4.776" cy="6.25" rx="4.776" ry="6.25" transform="translate(133.712 522.915)" fill="#141414"/>
      <ellipse id="Ellipse_14" data-name="Ellipse 14" cx="4.776" cy="6.25" rx="4.776" ry="6.25" transform="translate(133.712 515.276)" fill="#141414"/>
      <ellipse id="Ellipse_15" data-name="Ellipse 15" cx="4.776" cy="6.25" rx="4.776" ry="6.25" transform="translate(133.712 507.638)" fill="#141414"/>
      <ellipse id="Ellipse_16" data-name="Ellipse 16" cx="4.776" cy="6.25" rx="4.776" ry="6.25" transform="translate(133.712 500)" fill="#141414"/>
      <ellipse id="Ellipse_17" data-name="Ellipse 17" cx="4.776" cy="6.25" rx="4.776" ry="6.25" transform="translate(133.712 492.362)" fill="#141414"/>
      <ellipse id="Ellipse_18" data-name="Ellipse 18" cx="4.776" cy="6.25" rx="4.776" ry="6.25" transform="translate(133.712 484.724)" fill="#141414"/>
      <path id="Path_14" data-name="Path 14" d="M244.665,653.167a23.248,23.248,0,0,0,1.776-2.618L233.9,648.485l13.565.108a22.936,22.936,0,0,0,.439-18.125l-18.2,9.443,16.787-12.363a22.871,22.871,0,1,0-37.774,25.6,23.013,23.013,0,0,0-2.6,4.171l16.283,8.458-17.362-5.826a22.886,22.886,0,0,0,3.682,21.476,22.871,22.871,0,1,0,35.961,0,22.886,22.886,0,0,0,0-28.28Z" transform="translate(-88.305 -214.467)" fill="#315bf4"/>
      <path id="Path_15" data-name="Path 15" d="M203.82,687.148a22.778,22.778,0,0,0,4.891,14.14,22.871,22.871,0,1,0,35.961,0C247.728,697.4,203.82,684.581,203.82,687.148Z" transform="translate(-88.305 -234.308)" opacity="0.1"/>
      <path id="Path_16" data-name="Path 16" d="M373.706,572.524V735.068q-17.808-.87-35.594-2.093l-5.4-.381V572.524a6.344,6.344,0,0,1,6.344-6.344h28.309a6.344,6.344,0,0,1,6.344,6.344Z" transform="translate(-124.494 -200.437)" fill="#141414"/>
      <path id="Path_17" data-name="Path 17" d="M462.71,694.692V421.524a6.344,6.344,0,0,1,6.344-6.344h28.309a6.344,6.344,0,0,1,6.344,6.344V695.4Z" transform="translate(-160.995 -158.04)" fill="#141414"/>
      <path id="Path_18" data-name="Path 18" d="M592.71,717.729V500.524a6.344,6.344,0,0,1,6.344-6.344h28.309a6.344,6.344,0,0,1,6.344,6.344V717.262Z" transform="translate(-197.496 -180.221)" fill="#141414"/>
      <path id="Path_19" data-name="Path 19" d="M763.706,276.524V652.21q-20.5.583-41,1.093V276.524a6.343,6.343,0,0,1,6.344-6.344h28.309A6.344,6.344,0,0,1,763.706,276.524Z" transform="translate(-233.997 -117.327)" fill="#141414"/>
      <path id="Path_20" data-name="Path 20" d="M893.706,381.524V678.563c-13.665.662-27.331,1.129-41,1.546V381.524a6.344,6.344,0,0,1,6.344-6.344h28.309A6.344,6.344,0,0,1,893.706,381.524Z" transform="translate(-270.498 -146.809)" fill="#141414"/>
      <path id="Path_21" data-name="Path 21" d="M318.5,302.3,412,198.013l93.5,52.5L599,89.41l93.5,76.957" transform="translate(-89.427 -25.008)" fill="none" stroke="#141414" stroke-linecap="round" stroke-miterlimit="10" stroke-width="7"/>
      <circle id="Ellipse_19" data-name="Ellipse 19" cx="20.138" cy="20.138" r="20.138" transform="translate(208.576 257.154)" fill="#315bf4"/>
      <circle id="Ellipse_20" data-name="Ellipse 20" cx="20.138" cy="20.138" r="20.138" transform="translate(302.075 152.867)" fill="#315bf4"/>
      <circle id="Ellipse_21" data-name="Ellipse 21" cx="20.138" cy="20.138" r="20.138" transform="translate(395.574 205.37)" fill="#315bf4"/>
      <circle id="Ellipse_22" data-name="Ellipse 22" cx="20.138" cy="20.138" r="20.138" transform="translate(489.073 44.264)" fill="#315bf4"/>
      <circle id="Ellipse_23" data-name="Ellipse 23" cx="20.138" cy="20.138" r="20.138" transform="translate(668.879 215.439)" fill="#315bf4"/>
      <ellipse id="Ellipse_24" data-name="Ellipse 24" cx="13.435" cy="2.273" rx="13.435" ry="2.273" transform="translate(154.634 517.542)" fill="#6c63ff" opacity="0.1"/>
      <path id="Path_22" data-name="Path 22" d="M264.35,764.114s7.66-.237,9.968-1.884,11.788-3.6,12.363-.971,11.508,13.119,2.877,13.191-20.1-1.352-22.4-2.755S264.35,764.114,264.35,764.114Z" transform="translate(-105.3 -254.85)" fill="#a8a8a8"/>
      <path id="Path_23" data-name="Path 23" d="M289.7,775.142c-8.631.072-20.1-1.345-22.4-2.747-1.755-1.072-2.453-4.905-2.69-6.674h-.252s.482,6.178,2.791,7.581,13.752,2.827,22.4,2.755c2.5,0,3.359-.906,3.308-2.222C292.508,774.631,291.558,775.127,289.7,775.142Z" transform="translate(-105.3 -256.463)" opacity="0.2"/>
      <ellipse id="Ellipse_25" data-name="Ellipse 25" cx="24.677" cy="4.171" rx="24.677" ry="4.171" transform="translate(740.434 534.918)" fill="#6c63ff" opacity="0.1"/>
      <path id="Path_24" data-name="Path 24" d="M1084,777.282s14.075-.432,18.319-3.452,21.649-6.624,22.7-1.784,21.16,24.094,5.265,24.223-36.925-2.474-41.161-5.035S1084,777.282,1084,777.282Z" transform="translate(-335.439 -257.575)" fill="#a8a8a8"/>
      <path id="Path_25" data-name="Path 25" d="M1130.54,797.571c-15.895.129-36.925-2.474-41.161-5.035-3.222-1.963-4.51-9.012-4.941-12.227h-.468s.892,11.357,5.121,13.931,25.274,5.186,41.161,5.035c4.589,0,6.171-1.669,6.085-4.085C1135.7,796.629,1133.949,797.543,1130.54,797.571Z" transform="translate(-335.43 -260.56)" opacity="0.2"/>
      <path id="Path_26" data-name="Path 26" d="M892.765,397.445a6.473,6.473,0,0,0,1.438,3.431c1.043,1.18,2.6,1.719,4.006,2.424a15.822,15.822,0,0,1,7.739,8.9c2.4,6.991,2.7,14.384,5.754,21.131s6.631,13.227,9.264,20.138c1.5,3.92,2.69,8,4.884,11.565a17.936,17.936,0,0,0,4.006,4.61c-.165,2.532-.23,5.035-.216,7.566a2.877,2.877,0,0,1,2.46,1.295,7.488,7.488,0,0,1,1.079,2.7c.985,4.078-.23,8.422.654,12.522a63.694,63.694,0,0,1-2.158,34.264c-.985,2.791-2.222,12.025-1.172,14.794,3.913-.4,7.379,2.007,11.04,3.6a15.19,15.19,0,0,1-.518,6.473c-1.316,3.79-1.309,7.911-1.287,11.918l.18,29.675a44.756,44.756,0,0,0,.993,11.22c1.072,4.107,3.323,8.293,3.251,12.536-.194,9.134,4.121,17.837,3.776,26.9-.065,1.741-.3,3.467-.468,5.193a59.076,59.076,0,0,0,.345,13.8c1.309,9.105,4.768,18.06,3.905,27.216-.058.619-.266,1.438-.849,1.676.719.813,1.482,1.618,2.258,2.388a2.049,2.049,0,0,1-.626.654,6.357,6.357,0,0,1-2.747.719,5.819,5.819,0,0,0-3.143,1.021,4.524,4.524,0,0,0-1.309,2.4,6.473,6.473,0,0,0,.863,5.38,6.006,6.006,0,0,0,2.438,1.827c3.323,1.438,7.135.4,10.6-.654l13.579-4.114a4.574,4.574,0,0,0,2.208-1.151,2.417,2.417,0,0,0,.539-1.165c3,.719,6.293-.165,9.35-1.079l13.579-4.121a4.51,4.51,0,0,0,2.208-1.151,2.633,2.633,0,0,0,.554-2.158c.1-.043.2-.072.3-.122,1.036-.468,2.158-1.381,1.906-2.481-.18-.719-.9-1.136-1.208-1.8a2.6,2.6,0,0,1,.5-2.539c.532-.719,1.251-1.316,1.741-2.071,1.568-2.4.5-5.56-.086-8.372-1.273-6.005-.094-12.277-.9-18.362-.273-2.05-.77-4.064-1.165-6.1a124.619,124.619,0,0,1-1.661-14.543c-.518-6.962-2.453-13.823-1.345-20.728a80.49,80.49,0,0,0,.683-12.227,53.209,53.209,0,0,0-.338-7.8c-.281-1.928-.777-3.819-.993-5.754a52.153,52.153,0,0,1-.115-6.538,64.672,64.672,0,0,0-1.338-14.471c-1.438-6.538-4.143-12.795-5.294-19.347.388.086.777.173,1.151.273.043-5.035-4.366-15.981-6-20.757a6.036,6.036,0,0,1-.432-1.834,19.785,19.785,0,0,1,.453-2.467c.209-1.74-.719-3.395-.971-5.135a12.044,12.044,0,0,1,.266-3.654c1.158-6.437,2.6-12.824,4.035-19.2a20.454,20.454,0,0,0,.64-7.1,8.912,8.912,0,0,1,2.158-7.07,8.381,8.381,0,0,0,1.6-2.007,5.093,5.093,0,0,0,.316-2.007,32.244,32.244,0,0,0-1.295-8.739,22.617,22.617,0,0,0,2.1-7.775,126.261,126.261,0,0,0,1.582-17.714,30.022,30.022,0,0,0-1.295-9.35,37.11,37.11,0,0,0-2.46-5.423c-3.783-7.286-7.4-14.953-12.176-21.627-1.438-2.028-.532-4.826-.432-7.329.108-3.021-1.086-5.919-2.258-8.7a14.271,14.271,0,0,0-2.7-4.653,4.395,4.395,0,0,0-3.165-1.438,4.768,4.768,0,0,0-3.373,2.064,11.126,11.126,0,0,0-2.021,8.321,16.088,16.088,0,0,0,3.661,7.861,17.813,17.813,0,0,0,3.157,3q1.784,5.667,3.6,11.328a141.3,141.3,0,0,0,6.473,17.722,13.982,13.982,0,0,1,1.74,5.142c.1,1.964-.719,3.833-1.374,5.682a40.1,40.1,0,0,0-2.316,11.982,4.12,4.12,0,0,0-.6.331c-2.266,1.482-2.978,4.711-5.337,6.034-1.374.77-3.042.719-4.581,1.072a1.579,1.579,0,0,0-.417.115c-.058-.288-.115-.568-.151-.863a2.328,2.328,0,0,1,0-.554,24.157,24.157,0,0,0,8.94-8.516,7.789,7.789,0,0,0,1.057-2.158,8.343,8.343,0,0,0,.108-2.8,44.768,44.768,0,0,0-1.331-9.242,15.37,15.37,0,0,0-4.812-7.832c-1.18-.949-2.539-1.661-3.711-2.618-2.287-1.848-3.855-4.581-6.473-5.955a7.789,7.789,0,0,0-9.788,2.532,5.673,5.673,0,0,1-1.438,1.827,14.776,14.776,0,0,0-1.338.719,2.739,2.739,0,0,0-.575,2.834,29.5,29.5,0,0,1,.82,6.178,15.1,15.1,0,0,0-.043,19.541c0,1.338,0,2.675-.05,4.013a3.883,3.883,0,0,1-.05.762,5.186,5.186,0,0,1-2.158-1.438c-.806-1.007-.949-2.489-1.935-3.316a5.459,5.459,0,0,0-2.359-.863A14.649,14.649,0,0,1,940.594,455c-1.331-1.029-2.712-2.345-4.265-2.647a94.622,94.622,0,0,0-9.35-14.269,27.805,27.805,0,0,1-2.445-3.359c-1.546-2.7-2.007-5.869-2.985-8.825-2.733-8.285-9.551-14.931-11.213-23.5-.6-3.107-2.575-5.811-3.927-8.674-.913-1.935-1.92-3.977-3.747-5.085A6.379,6.379,0,0,0,895.1,389.8,9.083,9.083,0,0,0,892.765,397.445Zm85.393,291.063a6.36,6.36,0,0,1-2.747.719,13.254,13.254,0,0,0-1.438.23c-.18-1.51-.281-3.042-.4-4.531-.381-4.884-1.144-9.731-1.9-14.571-.791-5.035-1.165-10.544-2.877-15.377-2.755-7.868-5.545-15.974-5.193-24.31.079-1.892.316-3.769.417-5.653.23-4.668-.424-9.436.719-13.974.511-2.064,1.381-4.035,1.712-6.135a29.122,29.122,0,0,0,.072-5.711,75.9,75.9,0,0,1,1.633-19.671c1.338,1.748,1.776,4.006,2.158,6.171l2.7,14.629c1.6,8.681,3.021,17.887,7.271,25.612-.6,2.783-1.187,5.754-.2,8.415.424,1.151,1.122,2.158,1.553,3.323.719,1.935.619,4.064.834,6.113.468,4.315,2.251,8.559.942,12.723a62.064,62.064,0,0,0-2.611,13.205,32.154,32.154,0,0,1-.432,3.718c-.23,1.108-.6,2.158-.813,3.294a10.911,10.911,0,0,0,.209,4.8,9.8,9.8,0,0,1,.59,2.7c0,.921-1.129,1.582-2.035,1.726.266.345.554.676.849,1A3.15,3.15,0,0,1,978.159,688.508Z" transform="translate(-281.712 -149.518)" fill="url(#linear-gradient)"/>
      <path id="Path_27" data-name="Path 27" d="M970.217,817.124a5.818,5.818,0,0,0-3.143,1.021,4.43,4.43,0,0,0-1.309,2.388,6.387,6.387,0,0,0,.863,5.337,5.99,5.99,0,0,0,2.438,1.82c3.323,1.438,7.135.388,10.6-.654l13.579-4.085a4.559,4.559,0,0,0,2.208-1.144,3,3,0,0,0,.058-3.5,6.79,6.79,0,0,0-2.877-2.294c-4.222-2.057-8.983-2.525-13.622-2.611-1.726,0-3.431-.417-4.6.913-.619.719-.5,1.489-1.438,2.1A6.471,6.471,0,0,1,970.217,817.124Z" transform="translate(-302.173 -269.835)" fill="#3f3d56"/>
      <path id="Path_28" data-name="Path 28" d="M1005.887,806.745a5.876,5.876,0,0,0-3.143,1.021,4.459,4.459,0,0,0-1.309,2.388,6.408,6.408,0,0,0,.863,5.344,6.041,6.041,0,0,0,2.438,1.813c3.33,1.438,7.135.4,10.6-.647l13.579-4.092a4.561,4.561,0,0,0,2.208-1.144,2.992,2.992,0,0,0,.057-3.488,6.811,6.811,0,0,0-2.877-2.294c-4.229-2.057-8.99-2.532-13.629-2.618-1.726,0-3.424-.41-4.6.921-.619.719-.5,1.482-1.438,2.093a6.257,6.257,0,0,1-2.747.7Z" transform="translate(-312.188 -266.922)" fill="#3f3d56"/>
      <path id="Path_29" data-name="Path 29" d="M981.966,602.312a167.26,167.26,0,0,1,24.087-.676,4.79,4.79,0,0,1,1.561.245c1.769.719,2.043,3.035,2.208,4.927.719,7.681,4.071,14.838,5.754,22.361a63.884,63.884,0,0,1,1.338,14.384,51.6,51.6,0,0,0,.115,6.473c.216,1.92.719,3.8.993,5.718a52.518,52.518,0,0,1,.338,7.746,79.469,79.469,0,0,1-.683,12.133c-1.108,6.854.827,13.665,1.345,20.6a122.944,122.944,0,0,0,1.633,14.464c.4,2.021.892,4.02,1.165,6.056.805,6.049-.374,12.277.9,18.247.59,2.791,1.654,5.926.086,8.314-.489.719-1.208,1.331-1.74,2.057a2.567,2.567,0,0,0-.5,2.524c.309.654,1.028,1.086,1.208,1.784.281,1.1-.87,2-1.906,2.467a19.857,19.857,0,0,1-23.13-5.711c.906-.144,2.014-.8,2.035-1.719a9.709,9.709,0,0,0-.59-2.675,10.788,10.788,0,0,1-.209-4.761c.209-1.108.583-2.158.813-3.273a31.76,31.76,0,0,0,.432-3.7,61.284,61.284,0,0,1,2.611-13.119c1.309-4.136-.475-8.321-.942-12.637-.216-2.043-.122-4.15-.834-6.077-.432-1.136-1.129-2.158-1.553-3.294-.985-2.654-.4-5.6.2-8.365-4.251-7.674-5.667-16.823-7.271-25.446l-2.7-14.528c-.4-2.158-.841-4.394-2.158-6.135a74.914,74.914,0,0,0-1.633,19.541,28.771,28.771,0,0,1-.072,5.675c-.331,2.086-1.2,4.049-1.712,6.092-1.115,4.51-.46,9.242-.719,13.881-.1,1.877-.338,3.74-.417,5.617-.352,8.285,2.438,16.341,5.193,24.159,1.69,4.8,2.064,10.249,2.877,15.269.719,4.812,1.517,9.623,1.9,14.478.352,4.459.511,9.285,3.287,12.788-2.539,1.647-5.157,3.323-8.127,3.891a15,15,0,0,1-10.012-1.942,31.5,31.5,0,0,1-7.911-6.725c.583-.2.791-1.05.849-1.661.863-9.105-2.6-17.981-3.905-27.043a58.255,58.255,0,0,1-.345-13.708c.165-1.719.4-3.438.468-5.164.345-9-3.992-17.664-3.833-26.669.072-4.222-2.158-8.379-3.251-12.457a45.081,45.081,0,0,1-.993-11.148l-.18-29.488c0-3.984,0-8.07,1.287-11.831,1.582-4.531-.23-9.731-.5-14.521a59.854,59.854,0,0,0,23.152,2.582Z" transform="translate(-300.069 -209.857)" fill="#696791"/>
      <path id="Path_30" data-name="Path 30" d="M937.968,459.256a93.972,93.972,0,0,0-11.011-17.384,27.554,27.554,0,0,1-2.445-3.337c-1.546-2.683-2.007-5.833-2.985-8.767-2.733-8.228-9.551-14.838-11.213-23.346-.6-3.093-2.575-5.754-3.927-8.631-.913-1.92-1.92-3.949-3.747-5.035a6.388,6.388,0,0,0-7.559,1.151,8.983,8.983,0,0,0-2.316,7.588A6.423,6.423,0,0,0,894.2,404.9c1.043,1.172,2.6,1.7,4.006,2.409a15.737,15.737,0,0,1,7.739,8.839c2.4,6.941,2.7,14.291,5.754,20.994s6.631,13.133,9.264,19.987c1.5,3.891,2.69,7.911,4.883,11.508s5.617,6.61,9.753,7.149a24.059,24.059,0,0,1,1.172-7.681C937.673,465.276,939.269,461.939,937.968,459.256Z" transform="translate(-281.711 -151.526)" fill="#a0616a"/>
      <path id="Path_31" data-name="Path 31" d="M1011.693,463.459a39.743,39.743,0,0,1,2.337-14.945,15.488,15.488,0,0,0,1.374-5.646,13.846,13.846,0,0,0-1.74-5.114,131.171,131.171,0,0,1-6.473-17.6l-3.6-11.256a17.485,17.485,0,0,1-3.157-2.985,15.894,15.894,0,0,1-3.661-7.811,10.968,10.968,0,0,1,2.021-8.257,4.783,4.783,0,0,1,3.373-2.057,4.416,4.416,0,0,1,3.165,1.439,14.176,14.176,0,0,1,2.7,4.617c1.172,2.762,2.366,5.639,2.258,8.631-.1,2.489-1.029,5.265.432,7.286,4.776,6.631,8.393,14.248,12.177,21.49a36.367,36.367,0,0,1,2.46,5.387,29.628,29.628,0,0,1,1.295,9.307,129.153,129.153,0,0,1-1.582,17.6c-.511,3.661-1.18,7.645-3.948,10.069A57.014,57.014,0,0,0,1011.693,463.459Z" transform="translate(-310.91 -150.35)" fill="#a0616a"/>
      <circle id="Ellipse_26" data-name="Ellipse 26" cx="14.924" cy="14.924" r="14.924" transform="translate(667.562 286.067)" fill="#a0616a"/>
      <path id="Path_32" data-name="Path 32" d="M991.46,494.276c.36,2.7,1.805,5.114,3.215,7.444.849,1.438,1.935,2.97,3.6,3.129a72.489,72.489,0,0,1-13.557,5.452,15.335,15.335,0,0,1-4.948.8,12.1,12.1,0,0,1-4.121-1.057A20.491,20.491,0,0,1,964,496.434a27.045,27.045,0,0,0,5.545-.424,4.078,4.078,0,0,0,2.719-1.338,4.315,4.315,0,0,0,.561-2.4c.072-2.488.079-4.984,0-7.473a29.489,29.489,0,0,1,10.846,1.338c1.438.467,2.877,1.029,4.315,1.4.906.23,3.4,0,4.071.525C993.157,488.8,991.208,492.442,991.46,494.276Z" transform="translate(-301.745 -177.57)" fill="#a0616a"/>
      <path id="Path_33" data-name="Path 33" d="M979.273,502.261a9.393,9.393,0,0,1,7.149-8.35c1.539-.345,3.208-.3,4.581-1.064,2.359-1.316,3.071-4.524,5.337-6s5.48-.654,7.451,1.208,2.97,4.517,3.776,7.113a36,36,0,0,1,1.935,10.9,5.035,5.035,0,0,1-.316,1.992,8.315,8.315,0,0,1-1.6,1.992,8.818,8.818,0,0,0-2.158,7.027,20.136,20.136,0,0,1-.64,7.048c-1.438,6.344-2.877,12.68-4.035,19.081a11.845,11.845,0,0,0-.266,3.6c.223,1.733,1.18,3.373.971,5.106a19.328,19.328,0,0,0-.453,2.453,5.945,5.945,0,0,0,.431,1.82c1.633,4.74,6.042,15.6,6,20.62-7.66-1.964-18.952-2.4-26.863-2.438a59.794,59.794,0,0,0-6.516.288c-5.2.561-10.522,2.079-15.564.676-4.682-1.3-8.825-5.035-13.665-4.567-1.05-2.747.187-11.917,1.172-14.694a62.888,62.888,0,0,0,2.158-34.041c-.885-4.071.331-8.393-.655-12.435a7.415,7.415,0,0,0-1.079-2.683,2.877,2.877,0,0,0-2.46-1.287,91.619,91.619,0,0,1,1.8-19.369c.475-2.266,1.439-4.941,3.762-5.329,2.057-.352,3.783,1.388,5.437,2.661a14.608,14.608,0,0,0,5.754,2.7,5.459,5.459,0,0,1,2.359.863c.985.82,1.129,2.294,1.935,3.294,1.438,1.791,4.653,1.64,5.675,3.7a14.118,14.118,0,0,1,.539,1.884A6.918,6.918,0,0,0,973.6,499.1,13.349,13.349,0,0,0,979.273,502.261Z" transform="translate(-296.118 -176.486)" fill="#315bf4"/>
      <path id="Path_34" data-name="Path 34" d="M975.215,450.722a2.727,2.727,0,0,1,.575-2.819c.4-.309.913-.424,1.338-.719a5.755,5.755,0,0,0,1.438-1.82,7.811,7.811,0,0,1,9.774-2.481c2.6,1.359,4.164,4.078,6.473,5.912,1.172.949,2.532,1.654,3.711,2.6a15.254,15.254,0,0,1,4.812,7.782,44.16,44.16,0,0,1,1.331,9.177,8.257,8.257,0,0,1-.108,2.791,7.811,7.811,0,0,1-1.057,2.158,24.029,24.029,0,0,1-9.422,8.717,14.562,14.562,0,0,1-12.558.216,2.158,2.158,0,0,1-.964-.77,2.77,2.77,0,0,1-.151-1.661,11.371,11.371,0,0,0-1.251-6.365c-.719-1.438-1.8-2.676-2.373-4.164a14.507,14.507,0,0,1-.676-5.164C976.042,459.59,976.351,455.08,975.215,450.722Z" transform="translate(-304.854 -165.597)" fill="#2d293d"/>
    </g>
  </g>
</svg>
